<?xml version="1.0" standalone="no"?>
<!DOCTYPE svg PUBLIC "-//W3C//DTD SVG 20010904//EN"
 "http://www.w3.org/TR/2001/REC-SVG-20010904/DTD/svg10.dtd">
<svg version="1.0" xmlns="http://www.w3.org/2000/svg"
 width="1200.000000pt" height="1200.000000pt" viewBox="0 0 1200.000000 1200.000000"
 preserveAspectRatio="xMidYMid meet">
<metadata>
Created by potrace 1.14, written by Peter Selinger 2001-2017
</metadata>
<g transform="translate(0.000000,1200.000000) scale(0.100000,-0.100000)"
fill="#000000" stroke="none">
<path d="M4453 7627 c-34 -193 -61 -352 -59 -354 1 -2 45 -6 96 -10 l93 -6 -7
87 -7 88 -60 58 c-32 32 -59 62 -59 66 0 5 27 -18 60 -51 l59 -59 -4 35 c-3
19 -14 138 -26 264 -12 127 -22 231 -23 232 0 1 -29 -157 -63 -350z"/>
<path d="M3950 7884 c0 -10 14 -168 32 -349 l32 -330 90 22 c49 13 91 25 94
27 4 5 -11 47 -89 249 -27 70 -72 187 -100 260 -56 143 -59 150 -59 121z"/>
<path d="M5050 7817 c-13 -29 -82 -171 -152 -316 -70 -145 -128 -267 -128
-271 0 -4 18 -12 41 -19 23 -7 48 -15 57 -18 11 -5 13 -3 7 6 -5 9 -2 12 11 9
11 -2 18 -9 17 -16 -2 -6 4 -9 12 -6 9 4 15 1 15 -7 0 -10 3 -10 14 1 13 13
142 677 134 686 -2 2 -15 -20 -28 -49z"/>
<path d="M3410 7718 c0 -4 24 -69 54 -145 30 -76 86 -221 126 -323 39 -102 75
-189 79 -193 10 -10 93 37 84 48 -5 4 -3 5 4 1 10 -5 64 14 82 30 2 1 -45 69
-104 149 -79 107 -111 143 -118 133 -6 -9 -7 -8 -3 5 6 20 -118 194 -136 189
-5 -1 -7 1 -4 6 3 5 -10 31 -29 58 -19 27 -35 46 -35 42z"/>
<path d="M5525 7547 c-56 -64 -70 -88 -71 -115 -2 -42 -51 -96 -89 -97 -30 -2
-75 -41 -75 -67 0 -31 -26 -72 -59 -91 -17 -10 -31 -15 -31 -11 0 4 -11 -3
-25 -16 -25 -24 -35 -47 -13 -34 7 4 8 3 4 -4 -4 -6 -13 -9 -20 -6 -7 3 -16
-2 -20 -11 -3 -9 -2 -13 4 -10 6 3 10 2 10 -4 0 -16 89 -73 102 -65 7 4 8 3 4
-4 -6 -10 31 -38 40 -30 2 2 41 83 87 179 47 95 117 239 156 318 39 79 70 145
69 146 -2 1 -34 -34 -73 -78z"/>
<path d="M5385 7390 c-16 -16 -25 -30 -19 -30 11 1 34 19 53 43 23 29 -3 19
-34 -13z"/>
<path d="M2956 7370 c23 -46 207 -279 216 -274 7 4 8 2 4 -5 -9 -15 32 -73 46
-65 7 4 8 2 4 -4 -5 -9 85 -141 151 -221 2 -3 35 26 73 64 55 54 67 72 58 82
-6 8 -17 12 -25 9 -8 -3 -12 -2 -9 3 6 9 3 12 -271 224 -112 86 -203 154 -203
151 0 -3 -12 8 -26 23 -14 15 -22 21 -18 13z"/>
<path d="M5965 7208 c-33 -22 -59 -44 -57 -50 1 -5 -2 -7 -7 -3 -6 3 -28 -6
-51 -21 -34 -23 -38 -29 -28 -43 11 -14 11 -14 -4 -3 -14 11 -30 4 -115 -50
-204 -131 -253 -165 -246 -172 4 -4 0 -4 -9 -1 -9 4 -19 1 -23 -5 -9 -14 54
-82 68 -73 6 3 8 2 4 -3 -3 -5 7 -26 22 -47 27 -36 29 -36 45 -18 10 11 19 28
21 38 1 10 7 17 13 16 16 -4 73 66 66 79 -4 6 -3 8 3 5 15 -9 87 69 78 84 -5
7 -4 10 2 6 10 -6 52 31 52 46 -1 5 3 12 7 15 4 4 4 0 -1 -8 -11 -20 -5 -14
101 105 112 126 128 145 123 144 -2 0 -31 -19 -64 -41z"/>
<path d="M5234 7218 l-19 -23 23 19 c21 18 27 26 19 26 -2 0 -12 -10 -23 -22z"/>
<path d="M4318 7100 c-154 -19 -309 -68 -447 -140 -101 -54 -237 -153 -233
-171 2 -8 0 -11 -3 -7 -11 11 -77 -43 -71 -58 3 -7 0 -16 -6 -20 -7 -4 -8 -3
-4 4 4 7 2 12 -3 12 -11 0 -15 -13 -12 -40 1 -12 0 -12 -7 -2 -11 16 -49 -26
-120 -131 -99 -145 -167 -318 -198 -502 -22 -132 -15 -371 16 -495 26 -108 50
-171 61 -164 5 3 7 10 4 15 -3 5 0 7 7 4 7 -3 58 31 113 75 55 44 119 95 143
112 23 18 60 47 81 63 21 17 51 39 67 50 39 28 142 107 183 142 19 15 50 39
70 53 90 62 220 173 214 183 -3 6 -1 7 5 3 15 -9 243 164 235 177 -3 6 -1 7 5
4 5 -4 47 22 93 58 l82 65 246 0 245 0 -44 45 c-25 25 -51 43 -58 40 -7 -2
-11 -1 -8 4 8 12 -19 33 -29 23 -5 -4 -5 -2 -2 5 9 14 -99 87 -115 77 -6 -4
-8 -3 -5 3 6 10 -84 63 -130 78 -19 5 -23 2 -23 -14 0 -36 -22 -69 -59 -88
-20 -10 -38 -19 -40 -21 -3 -1 8 -16 24 -32 19 -20 25 -34 19 -40 -12 -12
-199 174 -190 189 4 6 13 8 21 4 10 -3 15 1 15 14 0 10 5 24 11 30 14 14 -5
20 -96 28 -85 7 -234 -8 -333 -35 -40 -11 -76 -20 -80 -20 -13 1 62 39 128 64
133 51 185 60 356 60 89 1 157 4 152 7 -6 4 -7 12 -4 18 4 6 11 9 16 6 4 -2
13 8 19 23 14 33 57 60 88 54 22 -3 133 -106 133 -123 0 -17 -14 -8 -71 46
-32 30 -65 55 -74 55 -28 0 -67 -47 -59 -73 3 -12 7 -22 8 -22 151 -32 289
-95 411 -187 110 -82 140 -110 185 -171 l35 -46 158 -1 c98 0 157 4 157 10 0
6 -5 10 -11 10 -5 0 -7 5 -4 10 4 6 1 9 -6 8 -6 -2 -14 3 -17 11 -3 9 0 11 9
6 17 -11 -33 75 -84 145 -58 79 -168 191 -180 183 -6 -3 -7 -2 -4 4 8 12 -19
38 -97 92 -32 22 -63 38 -69 34 -5 -3 -7 -2 -4 4 3 5 -26 27 -66 48 -55 29
-67 33 -53 17 11 -13 19 -38 20 -63 1 -34 -5 -46 -32 -70 -23 -21 -43 -29 -68
-29 -38 0 -45 24 -8 26 10 1 24 2 31 3 22 2 53 44 53 70 0 14 -7 35 -15 45
-15 19 -15 19 -15 -3 0 -13 -15 -38 -34 -57 -26 -26 -42 -34 -71 -34 -29 0
-45 8 -71 34 -43 43 -47 97 -9 138 29 31 34 29 -95 53 -103 19 -291 27 -382
15z m1117 -529 c-6 -5 -205 195 -205 206 0 4 47 -39 105 -97 57 -57 102 -106
100 -109z m75 -66 c30 -30 50 -55 45 -55 -5 0 -32 25 -61 55 -29 30 -49 55
-46 55 4 0 32 -25 62 -55z"/>
<path d="M4825 7028 c-36 -28 -35 -88 1 -117 56 -44 119 -16 127 56 4 38 2 43
-24 53 -15 7 -33 9 -40 4 -7 -4 -10 -3 -6 3 13 20 -33 21 -58 1z"/>
<path d="M2596 6922 c5 -5 50 -39 99 -77 50 -38 157 -121 240 -184 82 -63 155
-114 161 -114 7 0 12 -3 11 -7 -1 -4 12 -19 29 -33 l31 -26 36 66 c20 36 34
69 31 74 -3 5 0 8 7 7 7 -2 14 4 16 12 2 10 -11 21 -39 32 -40 15 -295 119
-532 217 -55 22 -96 37 -90 33z"/>
<path d="M6183 6717 c-72 -23 -129 -45 -127 -49 3 -4 -1 -6 -8 -3 -17 7 -393
-110 -392 -121 0 -5 16 -42 34 -81 24 -53 39 -73 53 -73 10 0 69 33 130 73 62
40 126 82 144 92 18 10 29 23 26 28 -3 6 -1 7 4 4 8 -5 256 143 281 167 10 10
-10 5 -145 -37z"/>
<path d="M4494 6697 c-13 -39 -13 -50 2 -79 22 -43 89 -54 126 -22 13 13 18
28 16 53 -3 29 -8 36 -38 46 -76 26 -98 26 -106 2z"/>
<path d="M2395 6385 c6 -3 154 -63 330 -134 l320 -129 24 90 c13 49 21 91 18
94 -4 5 -99 17 -427 53 -260 29 -276 31 -265 26z"/>
<path d="M4460 6004 c-124 -91 -229 -170 -234 -175 -6 -5 111 -9 300 -9 l310
0 219 161 c121 89 227 167 235 175 12 12 -30 14 -295 14 l-310 -1 -225 -165z"/>
<path d="M5210 5998 l-235 -173 287 -3 287 -2 233 171 c128 94 235 173 237
175 2 2 -126 4 -285 4 l-290 0 -234 -172z"/>
<path d="M5922 5997 l-234 -172 287 -3 286 -2 222 162 c121 90 228 168 236
175 13 10 -44 12 -274 12 l-290 1 -233 -173z"/>
<path d="M6654 6012 c-115 -86 -221 -165 -235 -174 -23 -16 -7 -17 314 -17
l337 -1 96 75 c53 41 99 75 104 75 6 0 576 -414 1189 -864 68 -50 140 -103
160 -117 41 -29 678 -495 910 -666 l155 -113 140 0 141 1 -35 28 c-29 24 -712
531 -1122 833 l-108 80 0 304 0 304 -190 0 -190 0 0 -160 c0 -88 -2 -160 -5
-160 -4 0 -362 264 -829 611 l-160 119 -230 -1 -231 -1 -211 -156z"/>
<path d="M2670 5879 c-168 -28 -312 -53 -320 -56 -8 -3 116 -20 275 -38 160
-18 315 -35 346 -39 l56 -7 -1 95 c-1 96 -1 96 -26 95 -14 -1 -162 -23 -330
-50z"/>
<path d="M4080 5726 c-8 -8 -121 -91 -250 -186 -129 -95 -239 -176 -244 -181
-6 -5 118 -9 300 -9 l310 0 259 190 c142 105 261 193 264 195 2 3 -137 5 -310
5 -256 0 -317 -3 -329 -14z"/>
<path d="M4606 5555 c-137 -102 -254 -189 -260 -195 -7 -7 80 -10 276 -10
l287 0 248 181 c136 100 255 188 263 195 12 12 -31 14 -275 14 l-290 -1 -249
-184z"/>
<path d="M5315 5553 c-137 -102 -251 -189 -253 -194 -5 -14 544 -12 570 2 15
8 485 349 517 376 2 1 -128 3 -290 2 l-294 -1 -250 -185z"/>
<path d="M6028 5553 c-141 -104 -257 -191 -257 -195 -1 -4 155 -7 347 -7 l347
0 245 190 c135 105 247 193 249 195 2 2 -148 4 -335 4 l-339 0 -257 -187z"/>
<path d="M2954 5504 c-54 -25 -120 -54 -146 -66 -27 -11 -45 -25 -41 -31 3 -5
1 -7 -5 -3 -8 5 -355 -144 -349 -150 4 -4 686 111 690 116 5 4 -39 169 -46
177 -2 1 -48 -18 -103 -43z"/>
<path d="M3345 5184 c-71 -52 -159 -117 -195 -143 -36 -27 -112 -83 -169 -125
l-104 -76 312 0 312 0 294 216 c162 118 295 217 295 220 0 2 -138 4 -307 4
l-308 0 -130 -96z"/>
<path d="M3944 5069 c-159 -117 -293 -216 -298 -220 -6 -5 116 -9 280 -9 l289
0 280 206 c154 113 287 212 295 220 12 12 -22 14 -271 14 l-286 0 -289 -211z"/>
<path d="M4646 5060 l-298 -220 289 0 290 0 291 213 c160 116 291 215 292 220
0 4 -127 7 -282 7 l-283 0 -299 -220z"/>
<path d="M5520 5178 c-74 -55 -209 -154 -299 -219 l-163 -119 374 0 374 0 260
201 c142 111 267 207 277 213 9 6 17 14 17 18 0 4 -159 7 -352 7 l-353 0 -135
-101z"/>
<path d="M6740 4795 l0 -215 215 0 215 0 0 215 0 215 -215 0 -215 0 0 -215z"/>
<path d="M7350 4795 l0 -215 211 2 211 3 -1 205 c0 113 -1 208 -1 213 0 4 -94
7 -210 7 l-210 0 0 -215z"/>
<path d="M2500 4564 c-146 -108 -305 -225 -355 -261 -49 -36 -94 -70 -100 -74
-5 -5 127 -9 302 -9 l311 0 348 256 c192 140 356 262 364 270 12 12 -27 14
-295 14 l-310 -1 -265 -195z"/>
<path d="M3161 4493 l-364 -268 286 -3 287 -2 358 261 c196 144 361 266 366
271 6 4 -120 8 -280 8 l-289 0 -364 -267z"/>
<path d="M4080 4645 c-85 -63 -242 -179 -349 -257 -107 -79 -201 -148 -210
-155 -13 -10 44 -12 274 -12 l290 -1 355 261 c195 143 359 265 364 270 6 5
-104 9 -280 9 l-289 -1 -155 -114z"/>
<path d="M4584 4492 l-361 -267 393 -3 393 -2 183 142 c101 78 224 174 273
213 50 39 118 92 152 118 34 26 65 52 68 57 4 7 -127 10 -367 9 l-373 -1 -361
-266z"/>
<path d="M6740 4190 l0 -210 215 0 215 0 0 210 0 210 -215 0 -215 0 0 -210z"/>
<path d="M7350 4190 l0 -210 210 0 210 0 0 194 c0 107 3 201 6 210 5 14 -17
16 -210 16 l-216 0 0 -210z"/>
</g>
</svg>
